HIERARCHY
ROOT SpineBase
{
  OFFSET 0.000000 0.000000 0.000000
  CHANNELS 6 Xposition Yposition Zposition Zrotation Xrotation Yrotation
  JOINT SpineMid
  {
    OFFSET 0.000000 30.691421 0.000000
    CHANNELS 3 Zrotation Xrotation Yrotation
    JOINT SpineShoulder
    {
      OFFSET 0.173374 22.769202 -0.764536
      CHANNELS 3 Zrotation Xrotation Yrotation
      JOINT Neck
      {
        OFFSET 0.123715 7.518766 -0.605908
        CHANNELS 3 Zrotation Xrotation Yrotation
        JOINT Head
        {
          OFFSET -2.203822 11.681944 0.271713
          CHANNELS 3 Zrotation Xrotation Yrotation
          End Site
          {
            OFFSET 0 0 0
          }
        }
      }
      JOINT ShoulderLeft
      {
        OFFSET -17.935903 -5.892998 2.058594
        CHANNELS 3 Zrotation Xrotation Yrotation
        JOINT ElbowLeft
        {
          OFFSET -2.741416 -28.408807 2.381164
          CHANNELS 3 Zrotation Xrotation Yrotation
          JOINT WristLeft
          {
            OFFSET 0.418034 -21.527661 -1.379687
            CHANNELS 3 Zrotation Xrotation Yrotation
            JOINT HandLeft
            {
              OFFSET -0.381742 -5.357851 2.179401
              CHANNELS 3 Zrotation Xrotation Yrotation
              JOINT HandTipLeft
              {
                OFFSET 0.514276 -9.237064 -0.198905
                CHANNELS 3 Zrotation Xrotation Yrotation
                End Site
                {
                  OFFSET 0 0 0
                }
              }
              JOINT ThumbLeft
              {
                OFFSET 3.527848 1.051058 -2.613358
                CHANNELS 3 Zrotation Xrotation Yrotation
                End Site
                {
                  OFFSET 0 0 0
                }
              }
            }
          }
        }
      }
      JOINT ShoulderRight
      {
        OFFSET 14.878283 -3.236824 -3.040773
        CHANNELS 3 Zrotation Xrotation Yrotation
        JOINT ElbowRight
        {
          OFFSET 7.269147 -20.408513 -1.190156
          CHANNELS 3 Zrotation Xrotation Yrotation
          JOINT WristRight
          {
            OFFSET -0.283922 -19.987722 -9.144238
            CHANNELS 3 Zrotation Xrotation Yrotation
            JOINT HandRight
            {
              OFFSET -4.124861 -8.094824 3.151610
              CHANNELS 3 Zrotation Xrotation Yrotation
              JOINT HandTipRight
              {
                OFFSET 1.182803 -8.551296 -4.359339
                CHANNELS 3 Zrotation Xrotation Yrotation
                End Site
                {
                  OFFSET 0 0 0
                }
              }
              JOINT ThumbRight
              {
                OFFSET 2.313886 0.691407 -0.642156
                CHANNELS 3 Zrotation Xrotation Yrotation
                End Site
                {
                  OFFSET 0 0 0
                }
              }
            }
          }
        }
      }
    }
  }
  JOINT HipLeft
  {
    OFFSET -7.416559 -0.090343 -2.749486
    CHANNELS 3 Zrotation Xrotation Yrotation
    JOINT KneeLeft
    {
      OFFSET 4.034167 -29.885832 3.328200
      CHANNELS 3 Zrotation Xrotation Yrotation
      JOINT AnkleLeft
      {
        OFFSET 9.538279 -40.377463 12.538099
        CHANNELS 3 Zrotation Xrotation Yrotation
        JOINT FootLeft
        {
          OFFSET -1.098932 -2.908785 -14.826128
          CHANNELS 3 Zrotation Xrotation Yrotation
          End Site
          {
            OFFSET 0 0 0
          }
        }
      }
    }
  }
  JOINT HipRight
  {
    OFFSET 8.580664 1.800537 -4.942390
    CHANNELS 3 Zrotation Xrotation Yrotation
    JOINT KneeRight
    {
      OFFSET 3.714373 -30.376737 -4.893023
      CHANNELS 3 Zrotation Xrotation Yrotation
      JOINT AnkleRight
      {
        OFFSET 11.551242 -30.111346 0.038773
        CHANNELS 3 Zrotation Xrotation Yrotation
        JOINT FootRight
        {
          OFFSET -3.184572 10.092860 -5.119106
          CHANNELS 3 Zrotation Xrotation Yrotation
          End Site
          {
            OFFSET 0 0 0
          }
        }
      }
    }
  }
}
MOTION
Frames: 6
Frame Time: 0.033333
-52.657854 80.610072 333.168040 -3.535105 -3.625399 20.562325 0.376597 -0.857966 -20.776551 -0.239370 -0.708957 -0.114559 4.701559 3.846337 -0.347632 0.000000 0.000000 0.000000 3.979953 3.738622 0.161310 -5.241892 6.353834 0.483568 14.479556 7.556530 2.990495 -15.416332 -7.205870 -4.943206 0.000000 0.000000 0.000000 0.000000 0.000000 0.000000 -3.623075 7.437135 2.057573 3.640729 -10.482434 -0.051546 46.038924 41.878001 -32.784756 -32.091893 -36.726097 -0.257496 0.000000 0.000000 0.000000 0.000000 0.000000 0.000000 13.049974 2.989759 -19.784514 -9.215460 -4.680146 -2.431761 6.798365 -42.119220 5.821352 0.000000 0.000000 0.000000 13.832683 5.418699 -21.785355 -7.858788 -3.820573 0.949893 101.489158 -75.855980 73.801051 0.000000 0.000000 0.000000
-52.752443 80.445273 333.391278 -3.649901 -4.221785 21.571674 0.398189 -0.787833 -21.809926 -0.200066 -0.658206 -0.112274 4.651006 4.116890 -0.398930 0.000000 0.000000 0.000000 4.474374 3.288280 0.234196 -5.913077 7.541637 0.497858 18.602515 5.394590 5.019021 -21.182295 -4.239646 -6.782085 0.000000 0.000000 0.000000 0.000000 0.000000 0.000000 -4.915408 8.155090 2.458311 6.846975 -9.935460 -0.862005 32.482794 38.082671 -23.268968 -27.532405 -33.451850 1.937875 0.000000 0.000000 0.000000 0.000000 0.000000 0.000000 14.043568 3.635667 -20.830086 -9.920391 -5.059532 -2.686752 7.058718 -40.054450 7.606229 0.000000 0.000000 0.000000 14.587772 5.807319 -22.946529 -6.672893 -0.888363 2.248276 152.964122 -67.508473 124.092250 0.000000 0.000000 0.000000
-52.873262 80.318772 333.575107 -3.854694 -4.779297 23.125018 0.377311 -0.780973 -23.396106 -0.193050 -0.629602 -0.116807 4.933589 4.603885 -0.443056 0.000000 0.000000 0.000000 5.074421 3.213502 0.270190 -6.986606 8.416520 0.598528 23.715995 4.016029 7.301868 -26.461280 -1.079938 -8.495019 0.000000 0.000000 0.000000 0.000000 0.000000 0.000000 -5.705993 9.161694 2.930920 9.671915 -8.920334 -1.727951 16.848094 30.549205 -13.624924 -21.759312 -29.922260 4.692363 0.000000 0.000000 0.000000 0.000000 0.000000 0.000000 14.951186 4.195068 -22.424405 -10.193771 -5.536444 -2.864608 7.152604 -39.517109 8.263313 0.000000 0.000000 0.000000 15.062046 5.641951 -24.585447 -4.525156 3.377684 3.839504 147.465404 -47.885481 116.015333 0.000000 0.000000 0.000000
-53.048753 80.189921 333.882628 -4.132862 -5.481255 24.672673 0.284158 -0.832527 -24.991757 -0.169268 -0.490387 -0.122521 5.324064 5.000588 -0.535034 0.000000 0.000000 0.000000 5.796158 3.526375 0.262472 -7.750643 8.587767 0.625540 25.639475 5.023695 7.769368 -28.625382 -1.419938 -9.411373 0.000000 0.000000 0.000000 0.000000 0.000000 0.000000 -7.510967 10.324615 3.715119 13.688464 -8.723141 -2.658629 7.859569 26.026589 -9.479510 -20.171653 -30.706619 5.930006 0.000000 0.000000 0.000000 0.000000 0.000000 0.000000 16.225692 5.071813 -24.039387 -10.521713 -6.122675 -3.076688 6.996014 -38.190467 8.871806 0.000000 0.000000 0.000000 15.868473 5.884558 -26.253839 -2.907815 5.883357 4.759694 140.103148 -30.183433 106.086503 0.000000 0.000000 0.000000
-53.121838 80.145771 333.945236 -4.270689 -5.919105 26.662474 -0.007068 -0.946282 -27.013802 -0.163957 -0.379503 -0.130015 5.791967 5.205561 -0.649010 0.000000 0.000000 0.000000 6.396145 4.172493 0.205203 -8.029716 8.001518 0.573942 26.583273 7.398851 7.544258 -31.084162 -3.516678 -10.529638 0.000000 0.000000 0.000000 0.000000 0.000000 0.000000 -9.497425 11.899254 4.853512 19.329860 -7.502394 -4.203983 -6.294097 13.636017 -3.226535 -12.422984 -26.675202 7.228509 0.000000 0.000000 0.000000 0.000000 0.000000 0.000000 16.960368 5.598279 -26.057910 -10.299470 -6.584471 -3.120722 6.874783 -38.261585 9.345365 0.000000 0.000000 0.000000 16.414991 5.687728 -28.283057 -2.135824 6.456228 4.956202 129.055785 -12.270845 90.537570 0.000000 0.000000 0.000000
-53.135050 80.131322 333.815351 -4.376625 -6.299240 28.769565 -0.237299 -0.944729 -29.144789 -0.299507 -0.508252 -0.144452 6.263582 5.605918 -0.737419 0.000000 0.000000 0.000000 7.018987 5.190723 0.098778 -7.968106 6.936830 0.467307 26.293048 10.920862 6.559860 -32.472123 -5.308454 -11.404519 0.000000 0.000000 0.000000 0.000000 0.000000 0.000000 -10.534504 12.170717 5.183586 23.638052 -5.081223 -5.349356 -13.933719 7.027779 -1.679002 -9.424496 -28.880634 7.467115 0.000000 0.000000 0.000000 0.000000 0.000000 0.000000 17.065921 6.117638 -28.229560 -9.179449 -7.021921 -2.923168 6.591093 -39.601301 9.032013 0.000000 0.000000 0.000000 17.124636 5.382244 -30.438451 -2.386470 4.581249 4.385620 104.916805 14.101267 59.833109 0.000000 0.000000 0.000000
